<svg width="121" height="120" fill="none" xmlns="http://www.w3.org/2000/svg"><path d="M60.5 111c28.166 0 51-22.834 51-51S88.666 9 60.5 9s-51 22.834-51 51 22.834 51 51 51z" fill="#DCEEFF"/><path d="M80.42 88.86a8.57 8.57 0 00-8.57-8.57 5.92 5.92 0 00-3.45.75c-.27.15-.525.328-.76.53a3.78 3.78 0 00-.51.55L69.04 97c.903.319 1.853.48 2.81.48a8.58 8.58 0 008.57-8.62zm-10.86 3.75a3.73 3.73 0 116.94-2.738 3.73 3.73 0 01-6.94 2.738zm-30.94 9.33a14 14 0 110-28h.84a2 2 0 001.1 3.17h.16a1.998 1.998 0 001.43 2.48 2.07 2.07 0 001.75-.33 2 2 0 001.33 1.16 2.06 2.06 0 001.27 0L49.86 56H12.5v19.19a14 14 0 015.89 20.27l1.23 4.46a.791.791 0 01-1 1l-4.46-1.23c-.54.342-1.1.649-1.68.92V120h28.59l2.61-19c-1.612.63-3.329.949-5.06.94zM53.18 120h6.77l-3.3-25.23L53.18 120z" fill="#CBA88A"/><path d="M79.91 56l4 21.83-3.29-1.43-.77.75a14 14 0 01-9.1 24.62h-1.09l2.4 18.23h36.441v-19.34a14.006 14.006 0 01-13.343-1.016 14 14 0 0113.343-24.524V56h-28.59zm-9.16 17.77h.24L67.71 56h-4l2.39 18.58a13.812 13.812 0 014.65-.81z" fill="#CBA88A"/><path d="M73.79 93.69a.63.63 0 00.19 0 2.6 2.6 0 001.46-3.36.52.52 0 00-.67-.3.53.53 0 00-.3.68 1.55 1.55 0 01-.87 2 .52.52 0 00.19 1v-.02zm25.13 1.68l9.58-6.81v-1.4l-9.58-6.81v15.02z" fill="#CBA88A"/><path d="M18.64 100.9a.784.784 0 00.81-.19.792.792 0 00.19-.81l-1.23-4.46a14 14 0 00-5.91-20.25v25.4c.579-.271 1.14-.578 1.68-.92l4.46 1.23zm70.13-13.01a14 14 0 0019.73 12.77v-12.1l-9.58 6.81v-15l9.58 6.79v-12a14.001 14.001 0 00-19.73 12.73zM45.23 80.5a2 2 0 01-1.33-1.16 2.07 2.07 0 01-2.464-.014 2 2 0 01-.716-2.136h-.16A2 2 0 0139.5 74h-.84a14 14 0 000 28c1.735-.01 3.452-.35 5.06-1l2.78-20.58a2.06 2.06 0 01-1.27.08zM74.4 94.71a3.73 3.73 0 10-2.74-6.938 3.73 3.73 0 002.74 6.938zm-.8-2a1.55 1.55 0 00.87-2 .53.53 0 01.3-.68.52.52 0 01.67.3 2.6 2.6 0 01-1.46 3.36.63.63 0 01-.19 0 .52.52 0 01-.19-1v.02z" fill="#0000A4"/><path d="M74.72 77.49L72.13 80l-1.14-6.22h-.24a13.812 13.812 0 00-4.65.81l1 7.56c.152-.2.323-.384.51-.55.235-.202.49-.38.76-.53a5.92 5.92 0 013.45-.75 8.58 8.58 0 010 17.15 8.42 8.42 0 01-2.78-.47l.62 4.76h1.09a14.001 14.001 0 009.1-24.62l-1.82 1.76-3.31-1.41z" fill="#0000A4"/><path d="M72.13 80l2.59-2.51 3.31 1.42 1.82-1.76.77-.75 3.31 1.43L79.91 56h-12.2l3.28 17.78L72.13 80zm-3.09 16.96l-1.95-14.82-.99-7.56L63.67 56H49.86l-3.35 24.42-2.83 20.56L41.07 120h12.11l3.47-25.23 3.3 25.23h12.11l-2.4-18.28-.62-4.76z" fill="#FED"/></svg>