<svg width="121" height="120" fill="none" xmlns="http://www.w3.org/2000/svg"><path d="M60.5 111c28.166 0 51-22.834 51-51S88.666 9 60.5 9s-51 22.834-51 51 22.834 51 51 51z" fill="#DCEEFF"/><path fill-rule="evenodd" clip-rule="evenodd" d="M86.15 62.775c3.45-.583 6.786-1.982 9.777-4.08l8.512 2.098-2.071-8.627c6.672-9.793 5.752-23.432-2.875-32.176-9.778-9.91-25.537-9.91-35.314 0a25.243 25.243 0 00-6.902 13.174" fill="#1EADFF"/><path fill-rule="evenodd" clip-rule="evenodd" d="M83.973 82.05c12.653-12.653 12.653-33.317 0-45.97-12.654-12.654-33.317-12.654-45.97 0-11.261 11.26-12.538 28.673-3.832 41.443l-2.786 11.144 11.145-2.786c12.77 8.707 30.182 7.43 41.443-3.83z" fill="#0000A4"/><path d="M60.97 78.283c-10.59 0-19.201-8.5-19.201-18.954 0-.92.814-1.723 1.745-1.723.931 0 1.746.804 1.746 1.723 0 8.5 7.098 15.508 15.71 15.508 8.61 0 15.709-7.008 15.709-15.508 0-.92.814-1.723 1.745-1.723.931 0 1.746.804 1.746 1.723 0 10.453-8.612 18.954-19.2 18.954z" fill="#FE73DC"/></svg>