<svg width="120" height="120" fill="none" xmlns="http://www.w3.org/2000/svg"><path d="M60 111c28.166 0 51-22.834 51-51S88.166 9 60 9 9 31.834 9 60s22.834 51 51 51z" fill="#fff"/><path fill-rule="evenodd" clip-rule="evenodd" d="M105.808 42.07h-2.511v20.91h2.511A4.184 4.184 0 00110 58.8V46.252a4.187 4.187 0 00-4.192-4.182z" fill="#90CDFE"/><path fill-rule="evenodd" clip-rule="evenodd" d="M31 88.074a6.28 6.28 0 006.288 6.276 6.281 6.281 0 006.286-6.276V69.255h-12.57v18.822L31 88.074zM10.604 46.4a12.53 12.53 0 004.833 17.073 12.5 12.5 0 006.137 1.593V39.989a12.563 12.563 0 00-10.97 6.413V46.4zM103.001 18h-12v69h11.997V18h.003z" fill="#0000A4"/><path fill-rule="evenodd" clip-rule="evenodd" d="M91 18.022h-.053C82.845 28.815 69.653 35.8 55.1 35.8H21.572v33.454h33.53c14.551 0 27.743 6.953 35.845 17.745H91V18.022z" fill="#1EADFF"/></svg>